<svg style="enable-background:new 0 0 32 32" viewBox="0 0 32 32" xml:space="preserve" xmlns="http://www.w3.org/2000/svg"><path style="fill:none;stroke:#000;stroke-opacity:1" d="M17 24h4v4h-4z"/><path style="stroke:#000;stroke-opacity:1;fill:none" d="M24 24h4v4h-4z"/><path style="fill:none;stroke:#000;stroke-opacity:1" d="M17 17h4v4h-4z"/><path style="stroke:#000;stroke-opacity:1;fill:none" d="M24 17h4v4h-4z"/><path d="M13 4.271c-1.561 0-2.729 1.168-2.729 2.729v4a.272.272 0 0 1-.271.271H4c-.24 0-.413.076-.533.196-.12.12-.196.294-.196.533v.178l1.899 12.08a.272.272 0 0 1 .002.015c.085.852.855 1.456 1.728 1.456h7.829V24.27H6.9a.272.272 0 0 1-.27-.23l-1.7-11a.272.272 0 0 1 .27-.312h22.529V11.27H22a.272.272 0 0 1-.271-.271V7c0-1.561-1.168-2.729-2.729-2.729Zm0 1.458h6c.36 0 .688.123.918.353.23.23.353.557.353.918v4a.272.272 0 0 1-.271.271h-8a.272.272 0 0 1-.271-.271V7c0-.36.123-.688.353-.918.23-.23.557-.353.918-.353Z"/><path style="fill:none" d="M0 0h32v32H0z"/></svg>